<svg width="120" height="120" viewBox="0 0 120 120" fill="none"
  xmlns="http://www.w3.org/2000/svg">
  <defs>
    <linearGradient id="cream_ascend" x1="60" y1="10" x2="60" y2="110" gradientUnits="userSpaceOnUse">
      <stop offset="0%" stop-color="#FFF6E5" />
      <stop offset="100%" stop-color="#F2DFC0" />
    </linearGradient>
    <filter id="soft_glow" x="-20%" y="-20%" width="140%" height="140%">
      <feGaussianBlur in="SourceGraphic" stdDeviation="2" result="blur" />
      <feComposite in="SourceGraphic" in2="blur" operator="over" />
    </filter>
  </defs>

  <path fill="url(#cream_ascend)" filter="url(#soft_glow)" d="M92.6506 33.5C88.2822 28.4251 82.5024 24.4198 76.0587 21.9661C69.6151 19.5123 62.7843 18.7124 56.3889 19.6614C49.9935 20.6104 44.2974 23.2687 39.9797 27.3233C35.662 31.378 32.9051 36.6599 32.0385 42.5436C31.1719 48.4273 32.2316 54.6719 35.0917 60.5391C37.9519 66.4063 42.4911 71.6494 48.1705 75.6434C53.8498 79.6374 60.4296 82.215 67.1253 83.0694C73.8209 83.9239 80.3475 83.0195 85.9378 80.4636C87.8658 79.5823 90.1365 80.0504 91.5842 81.6721C93.2455 83.5333 93.0442 86.4088 91.1415 88.0375C83.6661 94.436 73.9828 97.9386 64.145 97.9977C54.3073 98.0569 44.6722 94.6704 37.2503 88.5349C29.8284 82.3994 24.8994 73.7416 23.4912 64.3532C22.0831 54.9648 24.2475 45.2023 29.5357 37.0883C34.8238 28.9743 42.8319 22.8116 51.8944 19.8858C60.957 16.9601 70.7352 17.382 79.1998 21.1061C87.6644 24.8301 94.4933 31.7179 98.2648 40.328C99.2259 42.5221 98.0772 45.1053 95.8077 45.8922C93.5383 46.6791 91.0025 45.3823 90.1219 43.126C87.494 36.385 82.2533 30.7278 75.6017 27.3057C68.9501 23.8837 61.3632 23.0115 54.2339 24.8471C47.1047 26.6826 40.9491 31.0779 36.7466 36.9493C32.5441 42.8208 30.5319 49.754 31.1436 56.7945C31.7553 63.835 34.9489 70.4944 40.1132 75.509C45.2774 80.5235 52.0533 83.5432 59.1796 83.9639C66.3059 84.3847 73.2939 82.1774 78.9311 77.7248C84.5683 73.2721 88.4672 66.8936 89.8359 59.7937C90.2921 57.4279 92.5854 55.9521 94.9624 56.4191C97.3394 56.886 98.8987 59.1272 98.4488 61.5066C96.6423 71.0569 91.3994 79.6144 83.7819 85.5503C76.1644 91.4863 66.7418 94.3609 57.1496 93.7662C47.5574 93.1714 38.5129 89.1467 31.6948 82.4928C24.8767 75.8389 20.7925 67.0499 20.2649 57.8917C19.7374 48.7335 22.806 39.8884 28.8425 33.1149C34.879 26.3413 43.438 22.1492 52.8408 21.3896C62.2435 20.63 71.8136 23.3595 79.6802 29.0337C87.5469 34.7079 93.1335 42.913 95.3213 52.011C95.8751 54.3139 98.2524 55.7278 100.556 55.1741C102.86 54.6203 104.274 52.2428 103.72 49.9399C100.933 38.3502 93.8438 28.1622 83.9705 21.0873C74.0971 14.0125 62.0563 10.6229 50.1388 11.5111C38.2212 12.3992 27.232 17.5062 19.3944 25.9329C11.5567 34.3595 7.40326 45.5188 7.78734 56.971C8.17143 68.4232 12.8276 79.4241 20.8549 87.7278C28.8822 96.0316 40.026 101.084 51.8229 102.222C63.6199 103.361 75.5286 99.8362 85.0992 92.3009C94.6698 84.7655 101.179 73.8366 103.321 62.0777C103.863 58.825 102.374 55.6389 99.5017 53.9245L92.6506 33.5Z"/>
</svg>
